<?xml version="1.0" encoding="UTF-8"?>
<svg id="Layer_1" data-name="Layer 1" xmlns="http://www.w3.org/2000/svg" viewBox="0 0 1605.4467163086 812.9361572266">
  <path d="M1568.680847168,484.0850830078l-42.8936767578-38.8084716797-14.2978515625-40.8510742188,71.4893798828-32.680847168-155.2340698242-104.1702270508-16.3403930664,12.2553100586-93.9574584961,32.680847168-59.2340698242-26.5531616211-51.0638427734-98.0425415039,20.4255371094-36.7659912109,57.1915283203-6.1276855469-173.6170654297-106.2127075195L951.8297119141,0h-247.1489257812l-169.5319213867,71.4893798828-167.4893188477,85.7872314453-149.1063842773,71.4893188477-108.2553100586,73.5319213867-72.5106201172,55.1489257812L0,441.1914672852l75.5744628906,63.319152832,89.8723144531,61.2766113281,44.9361572266-26.4255371094,32.680847168,14.1702270508,34.723449707,49.0212402344,28.595703125,4.085144043,40.8510742188,22.4680786133,18.3829956055,2.0425415039h28.595703125l12.2553710938,26.5532226562,18.3829345703,10.2127685547,18.3829956055,12.2553100586,30.6383056641,16.3403930664,36.7659301758,8.1702270508h30.6383056641l38.8085327148-4.0850830078,34.7233886719,2.0425415039,63.319152832,22.4680786133,26.5531616211,18.3829956055,20.4255371094,12.2553100586c93.9574584961,12.2553100586,128.680847168,57.1914672852,128.680847168,57.1914672852l96-32.680847168,69.4468383789,32.680847168,98.0425415039-18.3829956055,134.8085327148-77.6170043945,75.5744628906-38.8085327148,73.5319213867-34.7233886719,20.4255371094-61.2766113281,16.3403930664-26.5531616211,20.4255371094,26.5531616211,59.2340698242-30.6382446289,36.7659912109-38.8085327148,38.8084716797,21.7872314453,12.2552490234-15.6595458984v-24.5106811523l-36.7658691406-10.2127685547ZM823.1488647461,449.3616943359c-89.1175537109,0-161.3616943359-48.4675292969-161.3616943359-108.2553100586s72.244140625-108.2553100586,161.3616943359-108.2553100586c89.1176147461,0,161.3617553711,48.4675292969,161.3617553711,108.2553100586s-72.244140625,108.2553100586-161.3617553711,108.2553100586Z" style="fill: rgba(255, 255, 255, .5); stroke-width: 0px;"/>
</svg>